<?xml version="1.0" standalone="no"?>
<!DOCTYPE svg PUBLIC "-//W3C//DTD SVG 20010904//EN"
 "http://www.w3.org/TR/2001/REC-SVG-20010904/DTD/svg10.dtd">
<svg version="1.0" xmlns="http://www.w3.org/2000/svg"
 width="400.000000pt" height="400.000000pt" viewBox="0 0 400.000000 400.000000"
 preserveAspectRatio="xMidYMid meet">
<metadata>
Created by potrace 1.14, written by Peter Selinger 2001-2017
</metadata>
<g transform="translate(0.000000,400.000000) scale(0.100000,-0.100000)"
fill="#000000" stroke="none">
<path d="M2046 3483 c-4 -4 -46 -8 -94 -10 -84 -3 -134 -8 -139 -13 -2 -1 -12
-4 -23 -5 -11 -1 -21 -4 -22 -5 -2 -1 -14 -4 -28 -5 -13 -1 -26 -7 -28 -13 -1
-5 -12 -8 -22 -5 -11 3 -20 1 -20 -5 0 -5 -15 -13 -34 -16 -19 -4 -39 -13 -46
-21 -7 -8 -16 -13 -20 -10 -5 3 -15 -1 -23 -9 -8 -8 -17 -12 -21 -9 -3 3 -8
-2 -12 -11 -3 -9 -10 -13 -15 -10 -5 3 -9 0 -9 -5 0 -6 -5 -11 -11 -11 -18 0
-90 -61 -83 -71 3 -5 0 -9 -7 -9 -24 0 -89 -103 -74 -118 5 -6 -42 -52 -54
-52 -9 0 -81 -65 -81 -74 0 -3 -8 -15 -17 -26 -10 -11 -18 -24 -18 -28 -1 -4
-8 -21 -18 -38 -9 -17 -13 -34 -10 -38 4 -3 2 -6 -4 -6 -9 0 -29 -67 -23 -79
1 -2 -3 -7 -8 -10 -9 -5 -17 -39 -27 -106 -1 -11 -6 -43 -10 -70 -12 -81 -12
-109 -2 -122 6 -9 6 -13 -1 -13 -6 0 -9 -10 -7 -22 2 -13 6 -45 10 -72 3 -27
11 -59 17 -70 6 -12 10 -22 9 -24 -7 -7 12 -62 21 -62 6 0 9 -3 5 -6 -3 -3 -2
-17 3 -30 10 -26 1 -31 -30 -14 -15 8 -23 5 -40 -12 -11 -12 -20 -24 -21 -27
0 -3 -3 -15 -6 -26 -8 -28 -11 -205 -3 -205 3 0 5 -15 5 -32 -1 -18 3 -53 7
-78 5 -25 9 -53 9 -62 0 -10 4 -18 9 -18 5 0 7 -7 4 -15 -4 -8 -1 -15 7 -15 7
0 9 -3 6 -7 -12 -12 44 -54 64 -48 12 4 19 1 20 -7 0 -7 2 -22 4 -33 3 -16 14
-166 18 -232 0 -7 3 -13 6 -13 3 0 7 -19 8 -43 4 -66 58 -258 75 -265 5 -2 8
-10 8 -17 0 -14 41 -97 52 -105 3 -3 8 -11 10 -18 7 -27 159 -192 177 -192 6
0 11 -4 11 -9 0 -5 37 -28 83 -51 45 -23 86 -46 91 -50 5 -5 15 -6 22 -3 8 3
14 0 14 -7 0 -6 5 -8 10 -5 6 3 16 3 23 -2 25 -16 97 -30 97 -19 0 7 3 7 8 -1
9 -15 89 -25 192 -25 99 0 163 8 230 27 30 8 60 17 65 18 39 11 105 41 105 49
0 5 4 7 8 4 9 -6 116 77 161 123 41 43 90 108 93 122 2 8 11 20 21 27 9 7 17
22 17 33 0 10 5 19 12 19 6 0 9 3 5 6 -3 3 3 22 13 42 27 53 61 142 54 142 -4
0 -1 6 5 13 6 8 8 17 4 20 -3 4 -1 7 6 7 7 0 9 5 6 10 -3 6 -3 16 2 23 8 14
10 18 19 67 9 51 12 65 14 65 3 0 17 84 22 132 1 7 11 11 22 9 12 -2 35 5 51
15 17 11 26 19 20 19 -6 0 -6 3 1 8 15 10 46 81 48 108 0 13 4 24 7 24 7 0 23
61 24 90 0 8 4 20 7 26 19 29 32 194 16 194 -5 0 -6 5 -3 10 3 6 -2 18 -11 28
-19 19 -54 25 -54 10 0 -6 -7 -7 -16 -4 -8 3 -12 2 -9 -3 3 -5 1 -12 -5 -16
-24 -15 -13 21 48 155 9 19 17 37 17 40 1 3 5 13 9 22 4 9 4 22 0 29 -4 7 -3
9 4 5 7 -4 13 11 18 41 3 27 8 57 11 68 2 11 3 67 2 125 0 58 -1 113 0 123 0
9 -3 17 -7 17 -4 0 -8 28 -9 62 -2 34 -6 64 -10 67 -5 3 -9 17 -11 31 -10 75
-68 196 -137 284 -37 49 -123 136 -133 136 -4 0 -14 9 -22 19 -7 11 -17 18
-22 15 -4 -3 -8 0 -8 6 0 5 -22 24 -50 41 -27 17 -50 35 -50 40 0 6 -4 8 -8 5
-4 -2 -43 13 -87 35 -44 21 -87 39 -97 39 -9 0 -20 5 -23 10 -3 6 -16 10 -29
10 -12 0 -26 3 -30 7 -6 7 -24 11 -58 15 -10 1 -18 5 -18 8 0 5 -43 12 -97 14
-13 1 -23 4 -23 8 0 3 -23 6 -51 6 -28 1 -56 6 -63 11 -7 6 -16 8 -20 4z"/>
</g>
</svg>
